<?xml version="1.0" encoding="UTF-8" standalone="no"?>
<!-- Created with Inkscape (http://www.inkscape.org/) -->

<svg
   width="69.227089mm"
   height="62.19434mm"
   viewBox="0 0 69.227089 62.19434"
   version="1.1"
   id="svg1"
   xml:space="preserve"
   xmlns="http://www.w3.org/2000/svg"
   xmlns:svg="http://www.w3.org/2000/svg"><defs
     id="defs1" /><g
     id="layer1"
     transform="translate(-86.083328,-82.153326)"><path
       d="m 96.572916,82.285417 c 0,7.858125 0,15.71625 0,23.812503 10.477504,0 20.955004,0 31.750004,0 0.0109,4.79673 0.0218,9.59346 0.0331,14.53554 0.005,1.51158 0.01,3.02316 0.0146,4.58054 0.002,1.85347 0.002,1.85347 0.003,2.72264 8e-4,0.60381 0.003,1.20762 0.005,1.81142 0.004,0.91745 0.004,1.83485 0.004,2.75231 0.002,0.26657 0.004,0.53314 0.006,0.80779 -0.01,3.40815 -0.86266,5.51905 -3.24705,8.00931 -2.07389,1.91405 -4.30873,2.88045 -7.13755,2.88045 0,-9.25513 0,-18.51025 0,-28.04584 -7.15963,0 -14.31925,0 -21.695837,0 0.0418,6.39956 0.0418,6.39956 0.09534,12.79903 0.0048,1.24647 0.0048,1.24647 0.0057,1.83265 0.0016,0.40359 0.0053,0.80718 0.01072,1.21075 0.04699,3.68557 -0.453647,6.50165 -3.022151,9.29299 -2.146743,2.0307 -4.261103,2.92554 -7.14375,2.91042 -0.03092,-6.99176 -0.05424,-13.98351 -0.06854,-20.97532 -0.0068,-3.24651 -0.01611,-6.49299 -0.03126,-9.73947 -0.0132,-2.83008 -0.02172,-5.66012 -0.02467,-8.49022 -0.0017,-1.49814 -0.0058,-2.99619 -0.0154,-4.4943 -0.009,-1.411169 -0.01175,-2.822215 -0.0098,-4.233411 -3.7e-4,-0.516856 -0.003,-1.033716 -0.0081,-1.550546 -0.04691,-5.013597 -0.04691,-5.013597 1.480616,-7.137569 0.271146,-0.382163 0.271146,-0.382163 0.54777,-0.772046 2.240582,-2.474864 4.984,-4.519621 8.448063,-4.519621 z"
       fill="#03256b"
       id="path2"
       style="stroke-width:0.264583" /><path
       d="m 131.93794,82.167401 c 0.64455,0.0022 1.28847,-0.0054 1.93296,-0.01376 3.57139,-0.01576 6.86404,0.565079 10.06243,2.248442 0.24352,0.124147 0.48704,0.248295 0.73794,0.376204 4.65157,2.524105 7.88548,6.4788 9.57151,11.495939 1.4645,5.297834 0.5365,10.701224 -2.05362,15.459524 -2.10464,3.65123 -5.18438,6.06914 -8.78499,8.1225 -0.18657,0.10709 -0.37313,0.21419 -0.56535,0.32453 -0.49299,0.20464 -0.49299,0.20464 -1.55132,0.20464 0.83789,1.76541 1.83061,3.39499 2.87734,5.04361 0.35755,0.56757 0.7148,1.13533 1.07177,1.70326 0.1803,0.28684 0.36059,0.57367 0.54635,0.8692 0.81058,1.29693 1.60668,2.60245 2.40024,3.90984 0.15003,0.24699 0.30005,0.49399 0.45462,0.74847 0.6263,1.0319 1.25174,2.06431 1.87689,3.0969 0.49573,0.81859 0.99207,1.6368 1.48841,2.45502 0.14907,0.24678 0.29814,0.49356 0.45172,0.74782 0.81667,1.34593 1.65968,2.65933 2.56877,3.94504 0.2868,0.49958 0.2868,0.49958 0.2868,1.29333 -1.38339,0.033 -2.76656,0.0568 -4.15026,0.0727 -0.46961,0.007 -0.93919,0.0156 -1.4087,0.0271 -5.28769,0.12646 -5.28769,0.12646 -7.14103,-1.42272 -0.62829,-0.65519 -1.11309,-1.34459 -1.5875,-2.11667 -0.17369,-0.27114 -0.17369,-0.27114 -0.35089,-0.54777 -0.35439,-0.5624 -0.69737,-1.13046 -1.03818,-1.70119 -0.25405,-0.42076 -0.5083,-0.8414 -0.76274,-1.26193 -0.12662,-0.20963 -0.25324,-0.41926 -0.3837,-0.63524 -0.56773,-0.93337 -1.14907,-1.85802 -1.7309,-2.78264 -0.88411,-1.4088 -1.75557,-2.82453 -2.61276,-4.24987 -0.099,-0.16412 -0.1979,-0.32824 -0.29985,-0.49732 -1.35094,-2.25668 -1.35094,-2.25668 -1.36872,-3.47789 -0.004,-0.22087 -0.008,-0.44173 -0.0128,-0.66929 -0.001,-0.23676 -0.003,-0.47352 -0.004,-0.71745 -0.004,-0.36901 -0.004,-0.36901 -0.007,-0.74548 -0.004,-0.5204 -0.006,-1.04081 -0.007,-1.56123 -0.003,-0.7916 -0.0161,-1.58265 -0.0295,-2.37414 -0.003,-0.50677 -0.004,-1.01355 -0.006,-1.52032 -0.005,-0.23462 -0.0103,-0.46923 -0.0157,-0.71095 0.0146,-2.03821 0.76477,-3.23979 2.08272,-4.74505 1.41197,-1.29251 2.68965,-2.02593 4.47518,-2.69751 2.16895,-0.94237 3.57117,-2.77741 4.44521,-4.92373 0.92821,-2.74595 0.66544,-4.951103 -0.5209,-7.572664 -1.13526,-2.270526 -3.42292,-3.445032 -5.73118,-4.267626 -1.6936,-0.441498 -3.42303,-0.390539 -5.16118,-0.391521 -0.40515,-0.004 -0.8103,-0.0084 -1.21545,-0.01326 -1.05651,-0.01147 -2.11296,-0.01683 -3.16952,-0.02083 -1.08206,-0.0052 -2.16407,-0.01631 -3.24609,-0.02689 -2.11579,-0.01983 -4.23155,-0.03319 -6.34741,-0.04237 0.081,-0.380876 0.16303,-0.761541 0.24546,-1.142114 0.0456,-0.212005 0.0911,-0.42401 0.13807,-0.642439 0.74006,-3.032278 3.15269,-5.44241 5.71842,-7.062453 0.58808,-0.346232 0.58808,-0.346232 1.30638,-0.677994 0.14623,-0.07067 0.29246,-0.141329 0.44312,-0.214134 1.94566,-0.80072 4.01459,-0.708542 6.08232,-0.697631 z"
       fill="#2db0e6"
       id="path3"
       style="stroke-width:0.264583" /><path
       d="m 96.572916,106.09792 c 10.477504,0 20.955004,0 31.750004,0 0.0109,4.79673 0.0218,9.59346 0.0331,14.53555 0.005,1.51157 0.01,3.02315 0.0146,4.58053 0.002,1.85347 0.002,1.85347 0.003,2.72264 8e-4,0.60381 0.003,1.20762 0.005,1.81142 0.004,0.91746 0.004,1.83486 0.004,2.75232 0.002,0.26657 0.004,0.53314 0.006,0.80778 -0.01,3.40815 -0.86266,5.51905 -3.24705,8.00931 -2.07389,1.91405 -4.30873,2.88045 -7.13755,2.88045 0,-9.25513 0,-18.51025 0,-28.04583 -7.15963,0 -14.31925,0 -21.695837,0 0,-0.0873 0,-0.17463 0,-0.26459 7.159627,0 14.319247,0 21.695837,0 0,-3.14325 0,-6.2865 0,-9.525 -7.07232,0 -14.14463,0 -21.431254,0 0,-0.0873 0,-0.17462 0,-0.26458 z"
       fill="#0e4a92"
       id="path4"
       style="stroke-width:0.264583" /></g></svg>
